<region> region_label=01_rr1 seq_position=1 key=44 sample=ten_p_01.$EXT volume=-6.5 tune=-15
<region> region_label=02_rr1 seq_position=1 key=45 sample=ten_p_02.$EXT volume=-4.5 tune=-13
<region> region_label=03_rr1 seq_position=1 key=46 sample=ten_p_03.$EXT volume=-3 tune=-13
<region> region_label=04_rr1 seq_position=1 key=47 sample=ten_p_04.$EXT volume=-3 tune=-16
<region> region_label=05_rr1 seq_position=1 key=48 sample=ten_p_05.$EXT tune=-9
<region> region_label=06_rr1 seq_position=1 key=49 sample=ten_p_06.$EXT tune=2
<region> region_label=07_rr1 seq_position=1 key=50 sample=ten_p_07.$EXT tune=-7
<region> region_label=08_rr1 seq_position=1 key=51 sample=ten_p_08.$EXT tune=-11
<region> region_label=09_rr1 seq_position=1 key=52 sample=ten_p_09.$EXT tune=-14
<region> region_label=10_rr1 seq_position=1 key=53 sample=ten_p_10.$EXT tune=-17
<region> region_label=11_rr1 seq_position=1 key=54 sample=ten_p_11.$EXT tune=-13
<region> region_label=12_rr1 seq_position=1 key=55 sample=ten_p_12.$EXT tune=-15
<region> region_label=13_rr1 seq_position=1 key=56 sample=ten_p_13.$EXT tune=-10
<region> region_label=14_rr1 seq_position=1 key=57 sample=ten_p_14.$EXT tune=-10
<region> region_label=15_rr1 seq_position=1 key=58 sample=ten_p_15.$EXT volume=1 tune=-17
<region> region_label=16_rr1 seq_position=1 key=59 sample=ten_p_16.$EXT tune=-10
<region> region_label=17_rr1 seq_position=1 key=60 sample=ten_p_17.$EXT tune=-15
<region> region_label=18_rr1 seq_position=1 key=61 sample=ten_p_18.$EXT tune=-7
<region> region_label=19_rr1 seq_position=1 key=62 sample=ten_p_19.$EXT tune=-15
<region> region_label=20_rr1 seq_position=1 key=63 sample=ten_p_20.$EXT tune=-17
<region> region_label=21_rr1 seq_position=1 key=64 sample=ten_p_21.$EXT tune=-17
<region> region_label=22_rr1 seq_position=1 key=65 sample=ten_p_22.$EXT tune=-20
<region> region_label=23_rr1 seq_position=1 key=66 sample=ten_p_23.$EXT tune=-18
<region> region_label=24_rr1 seq_position=1 key=67 sample=ten_p_24.$EXT tune=-21
<region> region_label=25_rr1 seq_position=1 key=68 sample=ten_p_25.$EXT tune=-17
<region> region_label=26_rr1 seq_position=1 key=69 sample=ten_p_26.$EXT volume=-0.5 tune=-12
<region> region_label=27_rr1 seq_position=1 key=70 sample=ten_p_27.$EXT volume=-2 tune=-12
<region> region_label=28_rr1 seq_position=1 key=71 sample=ten_p_28.$EXT tune=-20
<region> region_label=29_rr1 seq_position=1 key=72 sample=ten_p_29.$EXT tune=-15
<region> region_label=30_rr1 seq_position=1 key=73 sample=ten_p_30.$EXT volume=1.5 tune=-18
<region> region_label=31_rr1 seq_position=1 key=74 sample=ten_p_31.$EXT volume=3 tune=-24
<region> region_label=32_rr1 seq_position=1 key=75 sample=ten_p_32.$EXT volume=1 tune=-27
<region> region_label=33_rr1 seq_position=1 key=76 sample=ten_p_33.$EXT volume=1 tune=-36